# Blender 4.3.2
# www.blender.org
mtllib mymoney_vending_machine.mtl
o Cube
v 0.478963 0.957925 -0.099545
v 0.478963 -0.957925 -0.099545
v 0.500000 1.000000 0.500455
v 0.500000 -1.000000 0.500455
v -0.478963 0.957925 -0.099545
v -0.478963 -0.957925 -0.099545
v -0.500000 1.000000 0.500455
v -0.500000 -1.000000 0.500455
v 0.500000 -1.000000 -0.099545
v -0.500000 -1.000000 -0.099545
v 0.500000 1.000000 -0.099545
v -0.500000 1.000000 -0.099545
v 0.470803 -0.941607 -0.119092
v -0.466359 -0.932718 -0.119092
v 0.470803 0.941607 -0.119092
v -0.466359 0.932718 -0.119092
v -0.315534 -1.000000 -0.099545
v -0.315534 1.000000 0.500455
v -0.315534 -1.000000 0.500455
v -0.315534 1.000000 -0.099545
v -0.302258 -0.957925 -0.099545
v -0.302258 0.957925 -0.099545
v -0.314861 -0.932718 -0.119092
v -0.314861 0.932718 -0.119092
v -0.294099 -0.941607 -0.119092
v -0.478963 -0.957925 -0.119092
v -0.478963 0.957925 -0.119092
v -0.294099 0.941607 -0.119092
v -0.314861 -0.932718 -0.097309
v -0.466359 -0.932718 -0.097309
v -0.466359 0.932718 -0.097309
v -0.314861 0.932718 -0.097309
v 0.478963 0.957925 -0.119092
v 0.478963 -0.957925 -0.119092
v -0.302258 0.957925 -0.119092
v -0.302258 -0.957925 -0.119092
v 0.470803 0.941607 -0.145414
v 0.404618 -0.809237 -0.145414
v -0.294099 0.941607 -0.145414
v -0.227914 -0.809237 -0.145414
v 0.500000 -0.598371 -0.099545
v -0.500000 -0.598371 0.500455
v 0.500000 -0.598371 0.500455
v -0.500000 -0.598371 -0.099545
v 0.478963 -0.573195 -0.099545
v -0.478963 -0.573195 -0.099545
v 0.478963 -0.573195 -0.119092
v -0.478963 -0.573195 -0.119092
v -0.302258 -0.573195 -0.119092
v -0.315534 -0.598371 0.500455
v -0.466359 -0.558111 -0.119092
v -0.314861 -0.558111 -0.119092
v -0.466359 -0.558111 -0.097309
v -0.314861 -0.558111 -0.097309
v 0.470803 -0.563430 -0.119092
v -0.294099 -0.563430 -0.119092
v 0.404618 -0.695800 -0.145414
v -0.227914 -0.695800 -0.145414
v 0.470803 -0.563430 -0.145414
v 0.470803 -0.941607 -0.145414
v -0.294099 -0.941607 -0.145414
v -0.294099 -0.563430 -0.145414
v 0.404618 -0.695800 0.198103
v 0.404618 -0.809237 0.198103
v -0.227914 -0.809237 0.198103
v -0.227914 -0.695800 0.198103
vn -0.0000 1.0000 -0.0000
vn -0.0000 -0.0000 1.0000
vn -1.0000 -0.0000 -0.0000
vn -0.0000 -1.0000 -0.0000
vn 1.0000 -0.0000 -0.0000
vn -0.0000 -0.0000 -1.0000
vt 0.306273 0.249776
vt 0.306273 0.306273
vt 0.000000 0.306273
vt 0.000000 0.249776
vt 0.244769 0.362770
vt 0.000000 0.362770
vt 0.000000 0.306273
vt 0.244769 0.306273
vt 0.246354 0.302366
vt 0.001585 0.302366
vt 0.001585 -0.003906
vt 0.246354 -0.003906
vt 0.303952 0.011207
vt 0.303952 0.260983
vt -0.002321 0.260983
vt -0.002321 0.011207
vt 0.244769 0.309443
vt 0.000000 0.309443
vt 0.000000 0.003170
vt 0.244769 0.003170
vt 0.318253 0.923555
vt 0.318253 0.982471
vt 0.308275 0.982471
vt 0.308275 0.923555
vt 0.310812 0.909772
vt 0.310812 0.670506
vt 0.317256 0.664063
vt 0.317255 0.913838
vt 0.251896 0.670506
vt 0.017426 0.670506
vt 0.010983 0.664062
vt 0.255752 0.664062
vt 0.255802 0.682642
vt 0.314719 0.682642
vt 0.321162 0.689085
vt 0.259658 0.689085
vt 0.017426 0.909772
vt 0.017426 0.963892
vt 0.010983 0.970335
vt 0.010983 0.913838
vt 0.106623 0.913334
vt 0.106623 0.682858
vt 0.120059 0.682858
vt 0.120059 0.913334
vt 0.253013 0.935691
vt 0.253013 0.701221
vt 0.262990 0.701221
vt 0.262990 0.935691
vt 0.233057 0.755341
vt 0.233057 0.701221
vt 0.243035 0.701221
vt 0.243035 0.755341
vt 0.243035 0.940488
vt 0.243035 0.701221
vt 0.253013 0.701221
vt 0.253013 0.940488
vt 0.243035 0.994608
vt 0.253013 0.994608
vt 0.233057 0.994608
vt 0.243035 0.994608
vt 0.211098 0.858208
vt 0.211098 0.904607
vt 0.199978 0.904607
vt 0.199978 0.858208
vt 0.310812 0.963892
vt 0.317255 0.970335
vt 0.311764 0.095335
vt 0.311764 0.151832
vt 0.005491 0.151832
vt 0.005491 0.095335
vt 0.244769 0.331295
vt 0.000000 0.331295
vt 0.000000 0.081520
vt 0.244769 0.081520
vt 0.306273 0.000000
vt 0.000000 0.000000
vt 0.304415 0.978611
vt 0.304415 0.932212
vt 0.308275 0.928352
vt 0.308275 0.982471
vt 0.247049 0.978611
vt 0.249359 0.982471
vt 0.018749 0.932212
vt 0.018749 0.978611
vt 0.014889 0.982471
vt 0.014889 0.928352
vt 0.247049 0.932212
vt 0.249359 0.928352
vt 0.913220 0.937334
vt 0.913220 0.396534
vt 0.959620 0.396534
vt 0.959620 0.937334
vt 0.222217 0.858208
vt 0.222217 0.904607
vt 0.211098 0.904607
vt 0.161986 0.911158
vt 0.161986 0.968524
vt 0.150867 0.968524
vt 0.150867 0.911158
vt 0.161986 0.682858
vt 0.173105 0.682858
vt 0.173105 0.911158
vt 0.247864 0.691584
vt 0.017388 0.691584
vt 0.014889 0.689085
vt 0.249359 0.689085
vt 0.017388 0.925853
vt 0.305776 0.925853
vt 0.305776 0.691584
vt 0.308275 0.689085
vt 0.247864 0.925853
vt 0.671139 0.939510
vt 0.671139 0.396534
vt 0.905408 0.396534
vt 0.905408 0.939510
vt 0.173106 0.917126
vt 0.173106 0.682858
vt 0.186542 0.682858
vt 0.186542 0.917126
vt 0.186542 0.917126
vt 0.186542 0.682858
vt 0.199978 0.682858
vt 0.199978 0.917126
vt 0.133495 0.913334
vt 0.133495 0.971246
vt 0.120059 0.971246
vt 0.133495 0.682858
vt 0.123600 0.619927
vt 0.106228 0.619927
vt 0.106228 0.444577
vt 0.123600 0.444577
vt 0.173105 0.968524
vt 0.150867 0.682858
vt 0.858533 0.190012
vt 0.858533 0.070147
vt 0.904932 0.070147
vt 0.904932 0.190012
vt 0.306273 0.331295
vt 0.306273 0.081520
vt 0.253013 0.994608
vt 0.262990 0.994608
vt 0.106623 0.971246
vt 0.021332 0.682642
vt 0.318253 0.689085
vt 0.308275 0.689085
vt 0.294554 0.340693
vt 0.233050 0.340693
vt 0.233050 0.034420
vt 0.294554 0.034420
vt 0.178952 0.317991
vt 0.117448 0.314085
vt 0.117448 0.007813
vt 0.178952 0.011719
vt 0.306273 0.362770
vt 0.306273 0.306273
vt 0.256231 0.551370
vt 0.256231 0.533999
vt 0.276501 0.513728
vt 0.276501 0.571641
vt 0.062504 0.551370
vt 0.042233 0.571641
vt 0.062504 0.533999
vt 0.042233 0.513728
vt 0.209460 0.626585
vt 0.192089 0.626585
vt 0.192089 0.432858
vt 0.209460 0.432858
vt 0.140971 0.444577
vt 0.140971 0.619927
vt 0.227716 0.432858
vt 0.227716 0.626585
vt 0.052366 0.626585
vt 0.052366 0.432858
vt 0.227716 0.435179
vt 0.227716 0.628906
vt 0.052366 0.628906
vt 0.052366 0.435179
s 0
usemtl Material
f 20/1/1 12/2/1 7/3/1 18/4/1
f 50/5/2 18/6/2 7/7/2 42/8/2
f 42/9/3 7/10/3 12/11/3 44/12/3
f 17/13/4 9/14/4 4/15/4 19/16/4
f 41/17/5 11/18/5 3/19/5 43/20/5
f 45/21/5 2/22/5 34/23/5 47/24/5
f 21/25/6 2/26/6 9/27/6 17/28/6
f 45/29/6 1/30/6 11/31/6 41/32/6
f 46/33/6 6/34/6 10/35/6 44/36/6
f 22/37/6 5/38/6 12/39/6 20/40/6
f 56/41/3 28/42/3 39/43/3 62/44/3
f 46/45/3 5/46/3 27/47/3 48/48/3
f 21/49/4 6/50/4 26/51/4 36/52/4
f 22/53/1 1/54/1 33/55/1 35/56/1
f 5/57/1 22/53/1 35/56/1 27/58/1
f 2/59/4 21/49/4 36/52/4 34/60/4
f 16/61/4 24/62/4 32/63/4 31/64/4
f 1/30/6 22/37/6 20/40/6 11/31/6
f 6/65/6 21/25/6 17/28/6 10/66/6
f 10/67/4 17/68/4 19/69/4 8/70/4
f 43/71/2 3/72/2 18/73/2 50/74/2
f 11/75/1 20/1/1 18/4/1 3/76/1
f 14/77/6 23/78/6 36/79/6 26/80/6
f 51/81/6 14/77/6 26/80/6 48/82/6
f 24/83/6 16/84/6 27/85/6 35/86/6
f 52/87/6 24/83/6 35/86/6 49/88/6
f 53/89/6 31/90/6 32/91/6 54/92/6
f 23/93/1 14/94/1 30/95/1 29/61/1
f 52/96/3 23/97/3 29/98/3 54/99/3
f 51/96/5 16/100/5 31/101/5 53/102/5
f 55/103/6 15/104/6 33/105/6 47/106/6
f 15/104/6 28/107/6 35/86/6 33/105/6
f 25/108/6 13/109/6 34/110/6 36/79/6
f 56/111/6 25/108/6 36/79/6 49/88/6
f 62/112/6 39/113/6 37/114/6 59/115/6
f 28/116/1 15/117/1 37/118/1 39/119/1
f 13/120/4 25/121/4 61/122/4 60/123/4
f 55/124/5 13/125/5 60/126/5 59/44/5
f 15/127/5 55/124/5 59/44/5 37/43/5
f 40/128/5 58/129/5 66/130/5 65/131/5
f 28/107/6 56/111/6 49/88/6 35/86/6
f 13/109/6 55/103/6 47/106/6 34/110/6
f 14/97/5 51/96/5 53/102/5 30/132/5
f 24/100/3 52/96/3 54/99/3 32/133/3
f 30/134/6 53/135/6 54/136/6 29/137/6
f 23/78/6 52/87/6 49/88/6 36/79/6
f 16/84/6 51/81/6 48/82/6 27/85/6
f 4/138/2 43/71/2 50/74/2 19/139/2
f 6/140/3 46/45/3 48/48/3 26/141/3
f 25/142/3 56/41/3 62/44/3 61/126/3
f 5/143/6 46/33/6 44/36/6 12/105/6
f 2/26/6 45/29/6 41/32/6 9/27/6
f 1/144/5 45/21/5 47/24/5 33/145/5
f 9/146/5 41/147/5 43/148/5 4/149/5
f 8/150/3 42/151/3 44/152/3 10/153/3
f 19/154/2 50/5/2 42/8/2 8/155/2
f 38/156/6 57/157/6 59/158/6 60/159/6
f 40/160/6 38/156/6 60/159/6 61/161/6
f 58/162/6 40/160/6 61/161/6 62/163/6
f 57/157/6 58/162/6 62/163/6 59/158/6
f 65/164/6 66/165/6 63/166/6 64/167/6
f 57/131/3 38/168/3 64/169/3 63/128/3
f 58/170/4 57/171/4 63/172/4 66/173/4
f 38/174/1 40/175/1 65/176/1 64/177/1
